<svg width="50" height="51" viewBox="0 0 50 51" fill="none" xmlns="http://www.w3.org/2000/svg">
<path d="M44.5642 40.5452C42.8082 38.7761 38.5553 36.1942 36.4919 35.1537C33.8048 33.8003 33.5837 33.6898 31.4716 35.2588C30.0628 36.3059 29.1262 37.2413 27.4775 36.8897C25.8287 36.5381 22.2459 34.5555 19.1088 31.4286C15.9716 28.3016 13.874 24.6151 13.5212 22.972C13.1685 21.3289 14.1194 20.4034 15.1567 18.9914C16.6185 17.0011 16.508 16.6694 15.2584 13.9825C14.2842 11.8927 11.627 7.67987 9.85107 5.93283C7.95131 4.05642 7.95131 4.38813 6.72719 4.89677C5.73062 5.31604 4.77453 5.8257 3.87092 6.41935C2.10165 7.59473 1.1197 8.57108 0.432999 10.0384C-0.2537 11.5057 -0.562217 14.9456 2.98407 21.3875C6.53036 27.8294 9.0184 31.1234 14.1681 36.2584C19.3178 41.3933 23.2776 44.1543 29.0665 47.4007C36.2276 51.4112 38.9744 50.6294 40.4462 49.9439C41.9181 49.2583 42.8989 48.2853 44.0766 46.5161C44.6718 45.6141 45.1826 44.6591 45.6026 43.6634C46.1123 42.4438 46.4441 42.4438 44.5642 40.5452Z" fill="#F9EAB6"/>
<path d="M46.7203 33.6273C45.1551 32.0504 41.3645 29.7492 39.5254 28.8218C37.1304 27.6155 36.9333 27.517 35.0508 28.9154C33.7951 29.8487 32.9603 30.6825 31.4908 30.3691C30.0212 30.0557 26.8279 28.2886 24.0317 25.5015C21.2356 22.7144 19.3659 19.4287 19.0515 17.9642C18.7371 16.4997 19.5847 15.6748 20.5092 14.4162C21.8122 12.6423 21.7136 12.3466 20.5999 9.95178C19.7316 8.08912 17.3632 4.33423 15.7803 2.77709C14.087 1.10463 14.087 1.40029 12.996 1.85364C12.1077 2.22734 11.2556 2.6816 10.4502 3.21072C8.87321 4.25834 7.99799 5.12857 7.38593 6.43638C6.77388 7.74418 6.49889 10.8102 9.65972 16.5519C12.8205 22.2936 15.0381 25.2295 19.6281 29.8064C24.218 34.3832 27.7475 36.8441 32.9071 39.7376C39.2898 43.3121 41.7381 42.6154 43.0499 42.0043C44.3617 41.3933 45.236 40.526 46.2856 38.9492C46.8162 38.1452 47.2715 37.294 47.6458 36.4065C48.1001 35.3194 48.3958 35.3194 46.7203 33.6273Z" stroke="#7EB693" stroke-width="3" stroke-miterlimit="10"/>
</svg>
